<svg width="113" height="113" viewBox="0 0 113 113" fill="none" xmlns="http://www.w3.org/2000/svg">
<g clip-path="url(#clip0_209_1423)">
<path d="M56.6155 83.187C67.4218 83.187 76.1821 74.4267 76.1821 63.6203C76.1821 52.814 67.4218 44.0537 56.6155 44.0537C45.8091 44.0537 37.0488 52.814 37.0488 63.6203C37.0488 74.4267 45.8091 83.187 56.6155 83.187Z" fill="white"/>
<path d="M56.6162 44.0539C55.7539 44.0539 54.9064 44.1157 54.0732 44.2238C63.6774 45.4712 71.097 53.6765 71.097 63.6205C71.097 73.5645 63.6774 81.7701 54.0732 83.0173C54.9062 83.1254 55.7537 83.1872 56.6162 83.1872C67.4225 83.1872 76.1828 74.4268 76.1828 63.6205C76.1828 52.8143 67.4225 44.0539 56.6162 44.0539Z" fill="#E6E6E6"/>
<path d="M58.5934 47.1797H53.2676V60.0312H58.5934V47.1797Z" fill="#FFDA44"/>
<path d="M52.332 27.4974V34.0969V34.2125H60.668V34.0969V27.4974H52.332Z" fill="#FFDA44"/>
<path d="M60.668 27.4974H56.5V34.0969V34.2125H60.668V34.0969V27.4974Z" fill="#EDC10C"/>
<path d="M66.2251 34.2125H47.0059V47.1797H66.2251V34.2125Z" fill="#FFDA44"/>
<path d="M66.2255 34.2125H56.5V47.1797H66.2255V34.2125Z" fill="#FFDA44"/>
<path d="M66.2255 34.2125H56.5V47.1797H66.2255V34.2125Z" fill="#EDC10C"/>
<path d="M91.6965 111.205C102.503 111.205 111.263 102.445 111.263 91.6388C111.263 80.8324 102.503 72.0722 91.6965 72.0722C80.8902 72.0722 72.1299 80.8324 72.1299 91.6388C72.1299 102.445 80.8902 111.205 91.6965 111.205Z" fill="white"/>
<path d="M91.6963 72.0722C90.834 72.0722 89.9865 72.1339 89.1533 72.2421C98.7574 73.4895 106.177 81.6948 106.177 91.6388C106.177 101.583 98.7574 109.788 89.1533 111.036C89.9863 111.144 90.8338 111.205 91.6963 111.205C102.503 111.205 111.263 102.445 111.263 91.6388C111.263 80.8325 102.503 72.0722 91.6963 72.0722Z" fill="#E6E6E6"/>
<path d="M93.6744 75.1982H88.3486V88.0497H93.6744V75.1982Z" fill="#FFDA44"/>
<path d="M87.4131 55.5159V62.1153V62.231H95.749V62.1153V55.5159H87.4131Z" fill="#64C37D"/>
<path d="M95.749 55.5159H91.5811V62.1153V62.231H95.749V62.1153V55.5159Z" fill="#49AA60"/>
<path d="M101.306 62.231H82.0869V75.1982H101.306V62.231Z" fill="#64C37D"/>
<path d="M101.307 62.231H91.5811V75.1982H101.307V62.231Z" fill="#49AA60"/>
<path d="M21.303 111.205C32.1094 111.205 40.8696 102.445 40.8696 91.6388C40.8696 80.8324 32.1094 72.0722 21.303 72.0722C10.4966 72.0722 1.73633 80.8324 1.73633 91.6388C1.73633 102.445 10.4966 111.205 21.303 111.205Z" fill="white"/>
<path d="M21.303 111.205C32.1094 111.205 40.8696 102.445 40.8696 91.6388C40.8696 80.8324 32.1094 72.0722 21.303 72.0722C10.4966 72.0722 1.73633 80.8324 1.73633 91.6388C1.73633 102.445 10.4966 111.205 21.303 111.205Z" fill="white"/>
<path d="M21.3035 72.0722C20.4412 72.0722 19.5937 72.1339 18.7607 72.2421C28.3649 73.4895 35.7845 81.6948 35.7845 91.6388C35.7845 101.583 28.3649 109.788 18.7607 111.036C19.5937 111.144 20.4412 111.205 21.3035 111.205C32.1098 111.205 40.8701 102.445 40.8701 91.6388C40.8701 80.8325 32.1098 72.0722 21.3035 72.0722Z" fill="#E6E6E6"/>
<path d="M23.2809 75.1982H17.9551V88.0497H23.2809V75.1982Z" fill="#FFDA44"/>
<path d="M17.0195 62.1153V55.5159H25.3555V62.1153" fill="#D80027"/>
<path d="M25.3555 55.5159H17.0195V62.231H25.3555V55.5159Z" fill="#D80027"/>
<path d="M25.3555 55.5159H21.1875V62.231H25.3555V55.5159Z" fill="#BC052F"/>
<path d="M30.9126 62.231H11.6934V75.1982H30.9126V62.231Z" fill="#D80027"/>
<path d="M30.913 62.231H21.1875V75.1982H30.913V62.231Z" fill="#BC052F"/>
<path d="M60.3295 52.1583H56.8563V58.2945H55.0037V52.1583H51.5303V61.768H60.3295V52.1583Z" fill="black"/>
<path d="M77.919 63.6203C77.919 56.2978 74.1267 49.4777 67.962 45.5902V32.476H62.4047V25.7609H50.5953V32.476H45.2695V45.5902C39.1 49.4785 35.3125 56.2815 35.3125 63.6203C35.3125 75.367 44.8692 84.9237 56.6159 84.9237C68.3626 84.9237 77.919 75.367 77.919 63.6203ZM54.0687 29.2341H58.9315V32.476H54.0687V29.2341ZM48.7427 35.9492H64.4886V45.443H48.7427V35.9492ZM56.6159 81.4503C46.7844 81.4503 38.7859 73.4518 38.7859 63.6203C38.7859 57.7154 41.7155 52.2243 46.5304 48.9164H66.6994C71.5113 52.2248 74.4458 57.7282 74.4458 63.6203C74.4456 73.4518 66.4473 81.4503 56.6159 81.4503Z" fill="black"/>
<path d="M68.5761 63.6203C68.5761 70.2152 63.2108 75.5802 56.6162 75.5802V79.0537C65.1261 79.0537 72.0495 72.1304 72.0495 63.6203H68.5761Z" fill="black"/>
<path d="M58.2371 0.0578232H54.7637V22.5188H58.2371V0.0578232Z" fill="black"/>
<path d="M95.4105 80.1768H91.9371V86.313H90.0848V80.1768H86.6113V89.7864H95.4105V80.1768Z" fill="black"/>
<path d="M103.043 73.6087V60.4945H97.4857V53.7794H85.6764V60.4945H80.3506V73.6089C74.1861 77.4964 70.3936 84.3163 70.3936 91.6388C70.3936 103.386 79.9504 112.942 91.6969 112.942C103.443 112.942 113 103.386 113 91.6388C113 84.3165 109.208 77.4962 103.043 73.6087ZM89.1496 57.2526H94.0123V60.4945H89.1496V57.2526ZM83.8238 63.9677H99.5696V73.4615H83.8238V63.9677ZM91.6967 109.469C81.8653 109.469 73.8668 101.47 73.8668 91.6388C73.8668 85.7469 76.8012 80.2432 81.6132 76.9349H101.78C106.592 80.2432 109.526 85.7469 109.526 91.6388C109.527 101.47 101.528 109.469 91.6967 109.469Z" fill="black"/>
<path d="M103.657 91.6388C103.657 98.2336 98.2919 103.599 91.6973 103.599V107.072C100.207 107.072 107.131 100.149 107.131 91.6388H103.657Z" fill="black"/>
<path d="M93.3182 0.0578232H89.8447V50.5373H93.3182V0.0578232Z" fill="black"/>
<path d="M25.017 80.1768H21.5438V86.313H19.6912V80.1768H16.2178V89.7864H25.017V80.1768Z" fill="black"/>
<path d="M32.6495 73.6076V60.4943H27.0922V53.7792H15.2828V60.4943H9.95702V73.6089C3.7908 77.497 0 84.3115 0 91.6388C0 103.386 9.55667 112.942 21.3034 112.942C33.0501 112.942 42.6067 103.386 42.6067 91.6388C42.6067 87.1221 41.211 82.8063 38.5699 79.1583C36.9784 76.9603 34.9453 75.0576 32.6495 73.6076ZM18.7562 57.2526H23.619V60.4945H18.7562V57.2526ZM13.4302 63.9677H29.1761V73.4615H13.4302V63.9677ZM39.1331 91.6388C39.1331 101.47 31.1346 109.469 21.3031 109.469C11.4717 109.469 3.47321 101.47 3.47321 91.6388C3.47321 85.7427 6.40657 80.243 11.2192 76.9349H31.3785C33.0622 78.0936 34.5597 79.5423 35.7561 81.1951C37.9654 84.2468 39.1331 87.8582 39.1331 91.6388Z" fill="black"/>
<path d="M21.3037 103.599V107.072C29.8136 107.072 36.737 100.149 36.737 91.6388H33.2636C33.2636 98.2336 27.8983 103.599 21.3037 103.599Z" fill="black"/>
<path d="M22.9246 0.0578232H19.4512V50.5373H22.9246V0.0578232Z" fill="black"/>
</g>
<defs>
<clipPath id="clip0_209_1423">
<rect width="113" height="113" fill="white"/>
</clipPath>
</defs>
</svg>
