<svg width="24" height="24" viewBox="0 0 24 24" fill="none" xmlns="http://www.w3.org/2000/svg">
<path d="M4 21V20.481C4 19.1203 4.9319 17.9626 6.17834 17.417C7.50471 16.8363 8.73763 16.0513 9.81728 15.0282V13.4558C9.37974 13.1327 9.02838 12.684 8.76321 12.1096C8.49803 11.5352 8.36544 10.9321 8.36544 10.3003V7.94172C8.36544 6.83602 8.7168 5.90265 9.41952 5.14159C10.1222 4.38053 10.984 4 12.005 4C13.0259 4 13.8877 4.38053 14.5904 5.14159C15.2931 5.90265 15.6445 6.83602 15.6445 7.94172V10.3003C15.6379 10.9321 15.502 11.5352 15.2368 12.1096C14.9716 12.684 14.6203 13.1327 14.1827 13.4558V15.0282L14.5208 15.319C15.4437 16.1676 16.548 16.8691 17.8339 17.4237C19.0772 17.9599 20 19.1129 20 20.4669V21" stroke="#222222" stroke-width="1.5"/>
<rect x="0.75" y="0.75" width="22.5" height="22.5" rx="11.25" stroke="#222222" stroke-width="1.5"/>
</svg>
