<svg width="24" height="24" viewBox="0 0 24 24" fill="none" xmlns="http://www.w3.org/2000/svg">
<path fill-rule="evenodd" clip-rule="evenodd" d="M16.582 16.7839C16.9079 16.7571 17.222 16.75 17.4999 16.75C18.2361 16.75 19.227 16.7999 20.0152 17.1337C20.3975 17.2956 20.6976 17.5104 20.9029 17.7881C21.1026 18.0581 21.2499 18.4371 21.2499 19V19L21.2499 20C21.25 20.4142 21.5858 20.75 22 20.75C22.4142 20.75 22.75 20.4142 22.7499 20L22.7499 19V19C22.7499 18.1535 22.5207 17.453 22.109 16.8962C21.7029 16.3471 21.1568 15.9882 20.6001 15.7524C19.5101 15.2908 18.251 15.25 17.4999 15.25C17.0425 15.25 16.3968 15.2651 15.7156 15.3812C15.7602 15.4326 15.8042 15.4852 15.8473 15.5391C16.1498 15.9167 16.396 16.3327 16.582 16.7839Z" fill="#222222"/>
<circle cx="17.875" cy="10.5" r="2.5" stroke="#222222" stroke-width="1.5"/>
<path d="M2 20V19.1777C2 15.2526 6.3517 15 8.5 15C10.6483 15 15 15.2526 15 19.1777L15 20" stroke="#222222" stroke-width="1.5" stroke-linecap="round" stroke-linejoin="round"/>
<circle cx="8.5" cy="8.75" r="3.75" stroke="#222222" stroke-width="1.5"/>
</svg>
